Genre:Action
Language:English  http://www.imdb.com/title/tt1587406/

Plot : Back from Iraq, Johnny Brown discovers that a new war is taking place in the streets of New York. In an attempt to get kids off the streets and instill the discipline he has learned in the Marine Corps, Brown launches a school for Mixed Martial Arts. But when a group of drug pushers try to use his school as a drug laundering business, an all out brawl occurs; pitting Brown against his childhood friend, who is now pursuing a life of crime. 

General
Complete name :Circle.Of.Fury.2010.DvDRip.H264.Feel-Free
Format : MPEG-4
Format profile : Base Media
Codec ID : isom
File size : 1.11 GiB
Duration : 1h 30mn
Overall bit rate : 1 751 Kbps
Video #1
ID : 1
Format : AVC
Format/Info : Advanced Video Codec
Format profile : Baseline@L5.1
Format settings, CABAC : No
Format settings, ReFrames : 1 frame
Codec ID : avc1
Codec ID/Info : Advanced Video Coding
Duration : 1h 30mn
Bit rate mode : Variable
Bit rate : 1 513 Kbps
Width : 652 pixels
Height : 352 pixels
Display aspect ratio : 1.852
Frame rate mode : Constant
Frame rate : 23.976 fps
Resolution : 24 bits
Colorimetry : 4:2:0
Scan type : Progressive
Bits/(Pixel*Frame) : 0.275
Stream size : 982 MiB (86%)
Audio #2
ID : 2
Format : AAC
Format/Info : Advanced Audio Codec
Format version : Version 4
Format profile : LC
Format settings, SBR : No
Codec ID : 40
Duration : 1h 30mn
Bit rate mode : Variable
Bit rate : 256 Kbps
Channel(s) : 6 channels
Channel positions : Front: L C R, Rear: L R, LFE
Sampling rate : 48.0 KHz
Resolution : 16 bits
Stream size : 152 MiB (13%)